HIERARCHY
ROOT SpineBase
{
  OFFSET 0.000000 0.000000 0.000000
  CHANNELS 6 Xposition Yposition Zposition Zrotation Xrotation Yrotation
  JOINT SpineMid
  {
    OFFSET -0.000000 30.337910 0.000000
    CHANNELS 3 Zrotation Xrotation Yrotation
    JOINT SpineShoulder
    {
      OFFSET -0.276620 22.411245 -0.734690
      CHANNELS 3 Zrotation Xrotation Yrotation
      JOINT Neck
      {
        OFFSET -0.167379 7.368410 -0.577885
        CHANNELS 3 Zrotation Xrotation Yrotation
        JOINT Head
        {
          OFFSET 1.688084 13.994694 0.302304
          CHANNELS 3 Zrotation Xrotation Yrotation
          End Site
          {
            OFFSET 0 0 0
          }
        }
      }
      JOINT ShoulderLeft
      {
        OFFSET -17.113105 -4.512985 1.508494
        CHANNELS 3 Zrotation Xrotation Yrotation
        JOINT ElbowLeft
        {
          OFFSET -3.635150 -26.173163 1.005540
          CHANNELS 3 Zrotation Xrotation Yrotation
          JOINT WristLeft
          {
            OFFSET -2.037865 -25.958186 -7.240983
            CHANNELS 3 Zrotation Xrotation Yrotation
            JOINT HandLeft
            {
              OFFSET 0.457630 -5.022938 -0.568704
              CHANNELS 3 Zrotation Xrotation Yrotation
              JOINT HandTipLeft
              {
                OFFSET 0.426867 -5.162348 -2.672389
                CHANNELS 3 Zrotation Xrotation Yrotation
                End Site
                {
                  OFFSET 0 0 0
                }
              }
              JOINT ThumbLeft
              {
                OFFSET -3.159488 0.124596 -2.293577
                CHANNELS 3 Zrotation Xrotation Yrotation
                End Site
                {
                  OFFSET 0 0 0
                }
              }
            }
          }
        }
      }
      JOINT ShoulderRight
      {
        OFFSET 16.379437 -5.076466 -3.564229
        CHANNELS 3 Zrotation Xrotation Yrotation
        JOINT ElbowRight
        {
          OFFSET 5.232127 -25.203009 1.993165
          CHANNELS 3 Zrotation Xrotation Yrotation
          JOINT WristRight
          {
            OFFSET 5.913604 -21.603882 -4.173459
            CHANNELS 3 Zrotation Xrotation Yrotation
            JOINT HandRight
            {
              OFFSET 0.435359 -6.135135 -2.198322
              CHANNELS 3 Zrotation Xrotation Yrotation
              JOINT HandTipRight
              {
                OFFSET 0.446027 -5.186354 -0.909240
                CHANNELS 3 Zrotation Xrotation Yrotation
                End Site
                {
                  OFFSET 0 0 0
                }
              }
              JOINT ThumbRight
              {
                OFFSET -1.168644 -2.947281 -1.507951
                CHANNELS 3 Zrotation Xrotation Yrotation
                End Site
                {
                  OFFSET 0 0 0
                }
              }
            }
          }
        }
      }
    }
  }
  JOINT HipLeft
  {
    OFFSET -7.522789 0.217077 -2.749210
    CHANNELS 3 Zrotation Xrotation Yrotation
    JOINT KneeLeft
    {
      OFFSET -3.765692 -36.375349 -6.769409
      CHANNELS 3 Zrotation Xrotation Yrotation
      JOINT AnkleLeft
      {
        OFFSET -0.163798 -39.920674 5.087679
        CHANNELS 3 Zrotation Xrotation Yrotation
        JOINT FootLeft
        {
          OFFSET -1.848343 -4.423336 -13.493219
          CHANNELS 3 Zrotation Xrotation Yrotation
          End Site
          {
            OFFSET 0 0 0
          }
        }
      }
    }
  }
  JOINT HipRight
  {
    OFFSET 5.867432 0.204069 -4.594792
    CHANNELS 3 Zrotation Xrotation Yrotation
    JOINT KneeRight
    {
      OFFSET 5.801459 -33.786364 2.412318
      CHANNELS 3 Zrotation Xrotation Yrotation
      JOINT AnkleRight
      {
        OFFSET 0.171362 -37.643356 11.001105
        CHANNELS 3 Zrotation Xrotation Yrotation
        JOINT FootRight
        {
          OFFSET -2.390250 -3.874202 -14.774611
          CHANNELS 3 Zrotation Xrotation Yrotation
          End Site
          {
            OFFSET 0 0 0
          }
        }
      }
    }
  }
}
MOTION
Frames: 13
Frame Time: 0.033333
95.880668 83.210408 433.251130 -0.127129 -0.298004 8.526172 0.169908 0.275861 -8.526912 -0.000000 0.000000 0.000000 -0.202820 -1.077906 0.132496 0.000000 0.000000 0.000000 1.046882 -0.238836 0.075665 0.168553 -1.189651 -0.289504 -3.647874 16.239072 2.218197 -6.464610 -18.271970 0.117173 0.000000 0.000000 0.000000 0.000000 0.000000 0.000000 -0.000000 0.000000 0.000000 -0.103499 2.493180 0.702023 0.460395 -6.611417 -1.121094 1.909368 13.670748 0.496644 0.000000 0.000000 0.000000 0.000000 0.000000 0.000000 0.169908 0.275861 -8.526912 -0.000000 0.000000 0.000000 -0.000000 0.000000 0.000000 0.000000 0.000000 0.000000 0.169908 0.275861 -8.526912 -0.000000 0.000000 0.000000 0.300214 -1.546981 -0.196799 0.000000 0.000000 0.000000
95.911943 83.216913 433.275461 -0.126089 -0.309346 8.570407 0.170783 0.287100 -8.571175 -0.000000 0.000000 0.000000 -0.130070 -1.466633 0.178089 0.000000 0.000000 0.000000 0.861127 -0.019900 0.036035 0.506525 -0.784409 -0.346050 -5.256958 16.853490 2.801666 -4.663457 -18.579400 -0.087896 0.000000 0.000000 0.000000 0.000000 0.000000 0.000000 -0.000000 0.000000 0.000000 -0.234989 2.676539 0.780568 0.589614 -6.654774 -1.184266 2.925291 14.227943 0.204131 0.000000 0.000000 0.000000 0.000000 0.000000 0.000000 0.803570 0.924294 -8.751499 -0.528511 -0.726000 0.170286 -0.000000 0.000000 0.000000 0.000000 0.000000 0.000000 0.170783 0.287100 -8.571175 -0.000000 0.000000 0.000000 0.791515 -4.312644 -0.383437 0.000000 0.000000 0.000000
95.947984 83.209674 433.294244 -0.085906 -0.327385 8.546482 0.133607 0.310982 -8.547090 -0.000000 0.000000 0.000000 -0.182467 -2.018513 0.244277 0.000000 0.000000 0.000000 -0.000000 0.000000 0.000000 1.558764 0.256042 -0.458626 -6.668539 17.480022 3.382513 -2.639895 -21.562961 -0.791827 0.000000 0.000000 0.000000 0.000000 0.000000 0.000000 -0.000000 0.000000 0.000000 -0.384301 2.858593 0.863086 1.034567 -5.629905 -1.254808 3.915383 8.606550 -0.297629 0.000000 0.000000 0.000000 0.000000 0.000000 0.000000 0.755302 1.477454 -8.767560 -0.870038 -2.303531 0.141309 0.435870 1.054859 0.047265 0.000000 0.000000 0.000000 0.133607 0.310982 -8.547090 -0.000000 0.000000 0.000000 1.217259 -6.670744 -0.584905 0.000000 0.000000 0.000000
95.991562 83.193050 433.290727 -0.013602 -0.317373 8.444789 0.060064 0.311935 -8.444990 -0.000000 0.000000 0.000000 -0.243152 -2.798721 0.337061 0.000000 0.000000 0.000000 1.208030 0.686006 -0.056194 0.383622 0.736015 -0.513446 -7.920785 19.277895 4.091120 -2.043778 -23.179219 -1.049943 0.000000 0.000000 0.000000 0.000000 0.000000 0.000000 -0.000000 0.000000 0.000000 -0.206105 3.024742 0.869386 0.891053 -5.088176 -1.227864 3.619674 10.189989 -0.107562 0.000000 0.000000 0.000000 0.000000 0.000000 0.000000 0.754807 2.084637 -8.730298 -1.294833 -3.863732 0.115961 1.387581 -1.543064 0.035663 0.000000 0.000000 0.000000 0.060064 0.311935 -8.444990 -0.000000 0.000000 0.000000 1.533275 -8.460554 -0.711360 0.000000 0.000000 0.000000
96.066282 83.159261 433.237921 0.145300 -0.246167 7.979744 -0.109720 0.263953 -7.979179 -0.000000 0.000000 0.000000 -0.540496 -3.644914 0.434336 0.000000 0.000000 0.000000 1.353839 0.768261 -0.063887 0.490796 1.982610 -0.700853 -7.855063 19.034621 4.171393 -1.704808 -26.874467 -1.788173 0.000000 0.000000 0.000000 0.000000 0.000000 0.000000 0.097328 -0.945431 -0.187619 0.071128 3.969850 0.970495 0.588942 -3.085016 -1.045693 4.639443 9.764419 -0.292292 0.000000 0.000000 0.000000 0.000000 0.000000 0.000000 0.714433 2.665261 -8.346816 -1.710092 -5.439739 0.102944 2.001629 -0.871945 -0.659623 0.000000 0.000000 0.000000 -0.109720 0.263953 -7.979179 -0.000000 0.000000 0.000000 1.813797 -9.552840 -1.278452 0.000000 0.000000 0.000000
96.082978 83.253744 433.154649 0.308459 -0.188914 7.268341 -0.282082 0.226419 -7.267275 -0.000000 0.000000 0.000000 -0.944185 -4.711773 0.550158 0.000000 0.000000 0.000000 0.977734 0.884291 -0.092939 1.446956 2.847679 -0.926901 -7.756162 20.961396 4.503968 -2.505894 -30.500448 -2.576094 0.000000 0.000000 0.000000 0.000000 0.000000 0.000000 0.114275 -1.087352 -0.215412 0.535925 3.914764 0.830305 0.622574 -1.860039 -1.002296 4.739756 10.847819 -0.181375 0.000000 0.000000 0.000000 0.000000 0.000000 0.000000 0.915738 3.179230 -7.771286 -2.396923 -6.773315 0.117355 2.040243 4.642954 -1.548502 0.000000 0.000000 0.000000 -0.282082 0.226419 -7.267275 -0.000000 0.000000 0.000000 2.008566 -9.876798 -2.089113 0.000000 0.000000 0.000000
96.102663 83.507697 432.945461 0.564682 -0.223538 6.347771 -0.536511 0.284589 -6.345337 -0.000000 0.000000 0.000000 -1.176055 -5.212108 0.600851 0.000000 0.000000 0.000000 -0.000000 0.000000 0.000000 1.668518 5.427437 -0.959347 -4.050970 22.183137 3.902859 -5.780672 -32.473819 -3.448330 0.000000 0.000000 0.000000 0.000000 0.000000 0.000000 -0.740611 -1.119721 -0.298439 1.883557 4.026218 0.797081 -0.131657 -2.735132 -0.909220 5.049638 12.000712 -0.291271 0.000000 0.000000 0.000000 0.000000 0.000000 0.000000 1.115088 3.529709 -6.989064 -3.203126 -7.391985 0.131926 1.586248 15.185968 -2.593733 0.000000 0.000000 0.000000 -0.536511 0.284589 -6.345337 -0.000000 0.000000 0.000000 2.257973 -9.473890 -3.818806 0.000000 0.000000 0.000000
96.366018 83.199128 432.550549 1.103578 -0.194792 3.644599 -0.210318 -0.116996 -3.615815 0.267307 0.067262 0.058781 -2.267370 -5.140135 0.545489 0.000000 0.000000 0.000000 -2.425191 -0.495930 -0.028918 3.473090 7.305839 -1.333406 -2.982432 21.161066 3.666112 -4.248054 -34.251779 -3.764380 0.000000 0.000000 0.000000 0.000000 0.000000 0.000000 -1.979385 -1.036610 -0.422108 2.781846 4.167488 0.623233 -1.146606 -3.913710 -0.781615 5.470587 14.069063 -0.432162 0.000000 0.000000 0.000000 0.000000 0.000000 0.000000 0.368767 3.260690 -4.237257 -3.297392 -7.272613 0.084549 0.330042 31.441362 -3.331203 0.000000 0.000000 0.000000 -2.309133 0.199701 -3.746510 1.213302 0.144437 0.109714 2.270698 -5.711249 -6.288981 0.000000 0.000000 0.000000
96.789937 82.571453 432.111957 1.956323 -0.418223 0.359521 -0.071809 -0.220329 -0.294574 0.115845 0.041792 0.088022 -3.092019 -3.814303 0.393062 0.000000 0.000000 0.000000 -3.916981 0.021309 -0.114739 5.588170 7.566939 -1.825082 -2.314244 17.498745 3.244762 -1.604227 -32.798953 -3.504033 0.000000 0.000000 0.000000 0.000000 0.000000 0.000000 -1.838416 -1.182911 -0.488830 2.944301 4.228059 0.255517 -2.499426 -5.478467 -0.531830 5.887672 13.466849 -0.717193 0.000000 0.000000 0.000000 0.000000 0.000000 0.000000 -1.126684 2.839440 -0.768429 -2.778109 -6.679191 -0.010811 -2.057280 50.381130 -2.812548 0.000000 0.000000 0.000000 -3.769568 0.544216 -0.441882 1.816628 -0.099693 0.113862 2.608071 -4.618785 -8.386567 0.000000 0.000000 0.000000
97.389736 81.480344 431.607915 2.505481 -0.576560 -3.479879 -0.238921 -0.130348 3.561471 0.149207 0.015356 0.106639 -1.319502 -2.938508 0.276220 0.000000 0.000000 0.000000 -5.019365 0.504566 -0.206210 8.539090 8.534394 -2.650499 -4.338865 10.875285 3.358666 0.666580 -28.344917 -3.124738 0.000000 0.000000 0.000000 0.000000 0.000000 0.000000 -1.160883 -1.682237 -0.538189 2.720510 5.035140 0.115978 -4.218199 -7.099325 -0.309407 8.506350 13.785544 -1.699038 0.000000 0.000000 0.000000 0.000000 0.000000 0.000000 -2.539537 1.716350 3.354503 -1.643353 -5.489412 -0.129287 -7.333354 66.516252 1.005637 0.000000 0.000000 0.000000 -5.105023 0.950793 3.469128 2.532582 -0.681371 0.078584 3.011501 -5.412848 -9.934905 0.000000 0.000000 0.000000
98.231770 79.839727 431.166076 2.748606 -0.619033 -6.879849 -0.447300 -0.047523 6.964564 0.127498 0.046965 0.107849 2.351883 -2.542219 0.189714 0.000000 0.000000 0.000000 -6.868558 1.608774 -0.392373 12.422120 8.607937 -3.116470 -2.574007 2.781206 3.099119 0.325129 -22.607806 -3.328759 0.000000 0.000000 0.000000 0.000000 0.000000 0.000000 -0.257581 -2.433111 -0.578297 2.268854 5.836072 0.072680 -5.013933 -9.275753 -0.350750 9.079698 14.426651 -2.079550 0.000000 0.000000 0.000000 0.000000 0.000000 0.000000 -4.544206 -0.130247 7.255545 0.843239 -3.577478 -0.482538 -17.138718 76.900858 9.520784 0.000000 0.000000 0.000000 -6.117814 1.309823 6.965104 2.796735 -2.129944 -0.100851 3.776609 -6.805373 -10.970142 0.000000 0.000000 0.000000
99.531260 78.110432 431.187962 2.853843 -0.396631 -15.775046 -0.679535 0.017806 15.852109 0.058698 0.229435 0.103737 7.113521 -5.197059 0.676363 0.000000 0.000000 0.000000 -10.120916 2.508456 -0.655776 18.997552 8.289983 -3.665026 -7.139422 -12.351792 3.075175 6.286790 -12.292590 -4.901167 0.000000 0.000000 0.000000 0.000000 0.000000 0.000000 1.368855 -4.100422 -0.599025 1.402212 5.989894 -0.212745 -5.616406 -10.531339 -0.104158 7.697026 18.370131 -1.665126 0.000000 0.000000 0.000000 0.000000 0.000000 0.000000 -7.391315 -3.509239 16.771680 5.268299 -1.970641 -1.199553 -34.596256 81.969731 25.860521 0.000000 0.000000 0.000000 -8.702005 2.860910 16.379500 4.200640 -6.601878 -0.485520 4.987605 -15.878923 -14.153729 0.000000 0.000000 0.000000
100.588692 75.946728 430.825106 2.548655 -0.109030 -23.259783 -0.988219 0.046625 23.312214 0.072057 0.299931 0.087231 11.059389 -5.848342 0.931077 0.000000 0.000000 0.000000 -13.919427 5.178408 -0.934173 28.123498 5.880364 -3.522546 -10.697530 -31.727749 3.258518 11.080170 -3.987783 -9.675901 0.000000 0.000000 0.000000 0.000000 0.000000 0.000000 2.082844 -5.273603 -0.620066 2.488188 5.610373 -0.705808 -6.558260 -11.449796 0.246641 5.189240 20.628395 -0.673807 0.000000 0.000000 0.000000 0.000000 0.000000 0.000000 -9.009874 -8.053063 24.790189 9.921659 0.182293 -2.238058 -44.110529 82.818772 34.566644 0.000000 0.000000 0.000000 -9.457955 3.273528 24.193425 3.868617 -9.285856 -0.913777 6.037399 -28.913226 -16.033326 0.000000 0.000000 0.000000
